# xmcd
#
# Track frame offsets: 
#        150
#        15738
#        27900
#        40347
#        57805
#        72981
#        88736
#        97741
#        108698
#        125542
#
# Disc length: 1849 seconds
#
# Revision: 0
# Processed by: cddbd v1.5.2PL0 Copyright (c) Steve Scherf et al.
# Submitted via: ExactAudioCopyFreeDBPlugin 1.0
#
DISCID=8007370a
DTITLE=Country Gospel Messengers - Das Alt Rauhe Kreuz
DYEAR=1900
DGENRE=Alemán Country
TTITLE0=Was Gott Verheissen
TTITLE1=Wohin soll ich gehn?
TTITLE2=Bellas Mansiones
TTITLE3=Bist du eins von Gottes Kinder?
TTITLE4=Hast du keine Zeit für Jesum?
TTITLE5=Ein wunderbarer Name
TTITLE6=Freund, warum so viele Sorgen?
TTITLE7=Tal como soy
TTITLE8=Das alt rauhe Kreuz
TTITLE9=Ich weiss ja nicht was mir die Zukunft bringt
EXTD=
EXTT0=
EXTT1=
EXTT2=
EXTT3=
EXTT4=
EXTT5=
EXTT6=
EXTT7=
EXTT8=
EXTT9=
PLAYORDER=
